<mxfile host="app.diagrams.net" modified="2023-10-20T11:50:13.556Z" agent="Mozilla/5.0 (Windows NT 10.0; Win64; x64) AppleWebKit/537.36 (KHTML, like Gecko) Chrome/118.0.0.0 Safari/537.36" version="22.0.5" etag="m3kUfXQkvNtmwxI4iwPZ" type="github">
  <diagram name="Page-1" id="iO0J5U06AYC9va-EGoo3">
    <mxGraphModel>
      <root>
        <mxCell id="0" />
        <mxCell id="1" parent="0" />
      </root>
    </mxGraphModel>
  </diagram>
</mxfile>
